<mxfile host="app.diagrams.net" modified="2023-08-24T12:02:19.054Z" agent="Mozilla/5.0 (Windows NT 10.0; Win64; x64) AppleWebKit/537.36 (KHTML, like Gecko) Chrome/116.0.0.0 Safari/537.36" etag="C0nsX6Fq93-R78HVEBlH" version="21.6.6" type="github" pages="5">
  <diagram name="第 1 页" id="LXAT2Luc7dhH_AOjybZF">
    <mxGraphModel dx="1050" dy="534" grid="1" gridSize="10" guides="1" tooltips="1" connect="1" arrows="1" fold="1" page="1" pageScale="1" pageWidth="827" pageHeight="1169" math="0" shadow="0">
      <root>
        <mxCell id="0" />
        <mxCell id="1" parent="0" />
        <mxCell id="K3JCw_G1mMEZ7kwNVYyT-5" value="cf1" style="ellipse;whiteSpace=wrap;html=1;aspect=fixed;labelBackgroundColor=none;fillColor=#ffcd28;strokeColor=#d79b00;gradientColor=#ffa500;rounded=1;sketch=1;curveFitting=1;jiggle=2;" parent="1" vertex="1">
          <mxGeometry x="70" y="320" width="50" height="50" as="geometry" />
        </mxCell>
        <mxCell id="K3JCw_G1mMEZ7kwNVYyT-17" style="rounded=1;orthogonalLoop=1;jettySize=auto;html=1;exitX=0.5;exitY=0;exitDx=0;exitDy=0;entryX=1;entryY=1;entryDx=0;entryDy=0;labelBackgroundColor=none;strokeColor=#A8201A;fontColor=default;sketch=1;curveFitting=1;jiggle=2;" parent="1" source="K3JCw_G1mMEZ7kwNVYyT-10" target="K3JCw_G1mMEZ7kwNVYyT-14" edge="1">
          <mxGeometry relative="1" as="geometry" />
        </mxCell>
        <mxCell id="K3JCw_G1mMEZ7kwNVYyT-10" value="cf2" style="ellipse;whiteSpace=wrap;html=1;aspect=fixed;labelBackgroundColor=none;fillColor=#ffcd28;strokeColor=#d79b00;gradientColor=#ffa500;rounded=1;sketch=1;curveFitting=1;jiggle=2;" parent="1" vertex="1">
          <mxGeometry x="170" y="320" width="50" height="50" as="geometry" />
        </mxCell>
        <mxCell id="K3JCw_G1mMEZ7kwNVYyT-20" style="rounded=1;orthogonalLoop=1;jettySize=auto;html=1;exitX=0.5;exitY=0;exitDx=0;exitDy=0;labelBackgroundColor=none;strokeColor=#A8201A;fontColor=default;sketch=1;curveFitting=1;jiggle=2;" parent="1" source="K3JCw_G1mMEZ7kwNVYyT-11" target="K3JCw_G1mMEZ7kwNVYyT-18" edge="1">
          <mxGeometry relative="1" as="geometry" />
        </mxCell>
        <mxCell id="K3JCw_G1mMEZ7kwNVYyT-11" value="cf3" style="ellipse;whiteSpace=wrap;html=1;aspect=fixed;labelBackgroundColor=none;fillColor=#ffcd28;strokeColor=#d79b00;gradientColor=#ffa500;rounded=1;shadow=0;sketch=1;curveFitting=1;jiggle=2;" parent="1" vertex="1">
          <mxGeometry x="220" y="240" width="50" height="50" as="geometry" />
        </mxCell>
        <mxCell id="K3JCw_G1mMEZ7kwNVYyT-22" style="rounded=1;orthogonalLoop=1;jettySize=auto;html=1;exitX=0.5;exitY=0;exitDx=0;exitDy=0;entryX=0;entryY=1;entryDx=0;entryDy=0;labelBackgroundColor=none;strokeColor=#A8201A;fontColor=default;sketch=1;curveFitting=1;jiggle=2;" parent="1" source="K3JCw_G1mMEZ7kwNVYyT-12" target="K3JCw_G1mMEZ7kwNVYyT-21" edge="1">
          <mxGeometry relative="1" as="geometry" />
        </mxCell>
        <mxCell id="K3JCw_G1mMEZ7kwNVYyT-12" value="cf4" style="ellipse;whiteSpace=wrap;html=1;aspect=fixed;labelBackgroundColor=none;fillColor=#FFFCAD;strokeColor=#d79b00;gradientColor=#ffa500;rounded=1;sketch=1;curveFitting=1;jiggle=2;" parent="1" vertex="1">
          <mxGeometry x="320" y="240" width="50" height="50" as="geometry" />
        </mxCell>
        <mxCell id="K3JCw_G1mMEZ7kwNVYyT-23" style="rounded=1;orthogonalLoop=1;jettySize=auto;html=1;exitX=0.5;exitY=0;exitDx=0;exitDy=0;entryX=1;entryY=1;entryDx=0;entryDy=0;labelBackgroundColor=none;strokeColor=#A8201A;fontColor=default;sketch=1;curveFitting=1;jiggle=2;" parent="1" source="K3JCw_G1mMEZ7kwNVYyT-13" target="K3JCw_G1mMEZ7kwNVYyT-21" edge="1">
          <mxGeometry relative="1" as="geometry" />
        </mxCell>
        <mxCell id="K3JCw_G1mMEZ7kwNVYyT-13" value="cf5" style="ellipse;whiteSpace=wrap;html=1;aspect=fixed;labelBackgroundColor=none;fillColor=#FFFCAD;strokeColor=#d79b00;gradientColor=#ffa500;rounded=1;sketch=1;curveFitting=1;jiggle=2;" parent="1" vertex="1">
          <mxGeometry x="414" y="240" width="50" height="50" as="geometry" />
        </mxCell>
        <mxCell id="K3JCw_G1mMEZ7kwNVYyT-19" style="rounded=1;orthogonalLoop=1;jettySize=auto;html=1;exitX=0.5;exitY=0;exitDx=0;exitDy=0;entryX=0;entryY=1;entryDx=0;entryDy=0;labelBackgroundColor=none;strokeColor=#A8201A;fontColor=default;sketch=1;curveFitting=1;jiggle=2;" parent="1" source="K3JCw_G1mMEZ7kwNVYyT-14" target="K3JCw_G1mMEZ7kwNVYyT-18" edge="1">
          <mxGeometry relative="1" as="geometry" />
        </mxCell>
        <mxCell id="K3JCw_G1mMEZ7kwNVYyT-14" value="cf-tmp1" style="ellipse;whiteSpace=wrap;html=1;aspect=fixed;labelBackgroundColor=none;fillColor=#EAFF94;strokeColor=#82b366;rounded=1;sketch=1;curveFitting=1;jiggle=2;" parent="1" vertex="1">
          <mxGeometry x="120" y="240" width="50" height="50" as="geometry" />
        </mxCell>
        <mxCell id="K3JCw_G1mMEZ7kwNVYyT-16" value="" style="endArrow=classic;html=1;rounded=1;exitX=0.5;exitY=0;exitDx=0;exitDy=0;entryX=0;entryY=1;entryDx=0;entryDy=0;labelBackgroundColor=none;strokeColor=#A8201A;fontColor=default;sketch=1;curveFitting=1;jiggle=2;" parent="1" source="K3JCw_G1mMEZ7kwNVYyT-5" target="K3JCw_G1mMEZ7kwNVYyT-14" edge="1">
          <mxGeometry width="50" height="50" relative="1" as="geometry">
            <mxPoint x="390" y="310" as="sourcePoint" />
            <mxPoint x="440" y="260" as="targetPoint" />
          </mxGeometry>
        </mxCell>
        <mxCell id="K3JCw_G1mMEZ7kwNVYyT-25" style="rounded=1;orthogonalLoop=1;jettySize=auto;html=1;exitX=0.5;exitY=0;exitDx=0;exitDy=0;labelBackgroundColor=none;strokeColor=#A8201A;fontColor=default;sketch=1;curveFitting=1;jiggle=2;" parent="1" source="K3JCw_G1mMEZ7kwNVYyT-18" target="K3JCw_G1mMEZ7kwNVYyT-24" edge="1">
          <mxGeometry relative="1" as="geometry" />
        </mxCell>
        <mxCell id="K3JCw_G1mMEZ7kwNVYyT-18" value="cf-tmp2" style="ellipse;whiteSpace=wrap;html=1;aspect=fixed;labelBackgroundColor=none;fillColor=#EAFF94;strokeColor=#82b366;rounded=1;sketch=1;curveFitting=1;jiggle=2;" parent="1" vertex="1">
          <mxGeometry x="170" y="160" width="50" height="50" as="geometry" />
        </mxCell>
        <mxCell id="K3JCw_G1mMEZ7kwNVYyT-26" style="rounded=1;orthogonalLoop=1;jettySize=auto;html=1;exitX=0.5;exitY=0;exitDx=0;exitDy=0;entryX=1;entryY=1;entryDx=0;entryDy=0;labelBackgroundColor=none;strokeColor=#A8201A;fontColor=default;sketch=1;curveFitting=1;jiggle=2;" parent="1" source="K3JCw_G1mMEZ7kwNVYyT-21" target="K3JCw_G1mMEZ7kwNVYyT-24" edge="1">
          <mxGeometry relative="1" as="geometry" />
        </mxCell>
        <mxCell id="K3JCw_G1mMEZ7kwNVYyT-21" value="cf-tmp3" style="ellipse;whiteSpace=wrap;html=1;aspect=fixed;labelBackgroundColor=none;fillColor=#EAFF94;strokeColor=#82b366;rounded=1;sketch=1;curveFitting=1;jiggle=2;" parent="1" vertex="1">
          <mxGeometry x="364" y="160" width="50" height="50" as="geometry" />
        </mxCell>
        <mxCell id="K3JCw_G1mMEZ7kwNVYyT-24" value="cf-tmp4" style="ellipse;whiteSpace=wrap;html=1;aspect=fixed;labelBackgroundColor=none;fillColor=#f0a30a;strokeColor=#BD7000;fontColor=#000000;rounded=1;sketch=1;curveFitting=1;jiggle=2;" parent="1" vertex="1">
          <mxGeometry x="270" y="60" width="50" height="50" as="geometry" />
        </mxCell>
        <mxCell id="K3JCw_G1mMEZ7kwNVYyT-35" value="cf1" style="ellipse;whiteSpace=wrap;html=1;aspect=fixed;labelBackgroundColor=none;fillColor=#ffe6cc;strokeColor=#d79b00;rounded=1;sketch=1;curveFitting=1;jiggle=2;" parent="1" vertex="1">
          <mxGeometry x="70" y="320" width="50" height="50" as="geometry" />
        </mxCell>
        <mxCell id="K3JCw_G1mMEZ7kwNVYyT-36" value="cf2" style="ellipse;whiteSpace=wrap;html=1;aspect=fixed;labelBackgroundColor=none;fillColor=#ffe6cc;strokeColor=#d79b00;rounded=1;sketch=1;curveFitting=1;jiggle=2;" parent="1" vertex="1">
          <mxGeometry x="170" y="320" width="50" height="50" as="geometry" />
        </mxCell>
        <mxCell id="K3JCw_G1mMEZ7kwNVYyT-37" value="cf3" style="ellipse;whiteSpace=wrap;html=1;aspect=fixed;labelBackgroundColor=none;fillColor=#ffe6cc;strokeColor=#d79b00;rounded=1;shadow=0;sketch=1;curveFitting=1;jiggle=2;" parent="1" vertex="1">
          <mxGeometry x="220" y="240" width="50" height="50" as="geometry" />
        </mxCell>
        <mxCell id="K3JCw_G1mMEZ7kwNVYyT-42" value="cf5" style="ellipse;whiteSpace=wrap;html=1;aspect=fixed;labelBackgroundColor=none;fillColor=#ffe6cc;strokeColor=#d79b00;rounded=1;sketch=1;curveFitting=1;jiggle=2;" parent="1" vertex="1">
          <mxGeometry x="414" y="240" width="50" height="50" as="geometry" />
        </mxCell>
        <mxCell id="K3JCw_G1mMEZ7kwNVYyT-43" value="cf4" style="ellipse;whiteSpace=wrap;html=1;aspect=fixed;labelBackgroundColor=none;fillColor=#ffe6cc;strokeColor=#d79b00;rounded=1;sketch=1;curveFitting=1;jiggle=2;" parent="1" vertex="1">
          <mxGeometry x="320" y="240" width="50" height="50" as="geometry" />
        </mxCell>
      </root>
    </mxGraphModel>
  </diagram>
  <diagram id="FbUwRiShPFvnGJdbh5Nm" name="第 2 页">
    <mxGraphModel dx="1050" dy="534" grid="1" gridSize="10" guides="1" tooltips="1" connect="1" arrows="1" fold="1" page="1" pageScale="1" pageWidth="827" pageHeight="1169" math="0" shadow="0">
      <root>
        <mxCell id="0" />
        <mxCell id="1" parent="0" />
        <mxCell id="YNH4hVQxoiGxfMYPuk_M-8" value="cp" style="swimlane;whiteSpace=wrap;html=1;sketch=1;hachureGap=4;jiggle=2;curveFitting=1;fontFamily=Architects Daughter;fontSource=https%3A%2F%2Ffonts.googleapis.com%2Fcss%3Ffamily%3DArchitects%2BDaughter;fontSize=20;fillColor=#d5e8d4;strokeColor=#82b366;" parent="1" vertex="1">
          <mxGeometry x="270" y="40" width="200" height="190" as="geometry" />
        </mxCell>
        <mxCell id="YNH4hVQxoiGxfMYPuk_M-3" value="cf" style="rounded=0;whiteSpace=wrap;html=1;sketch=1;hachureGap=4;jiggle=2;curveFitting=1;fontFamily=Architects Daughter;fontSource=https%3A%2F%2Ffonts.googleapis.com%2Fcss%3Ffamily%3DArchitects%2BDaughter;fontSize=20;fillColor=#fff2cc;strokeColor=#d6b656;" parent="YNH4hVQxoiGxfMYPuk_M-8" vertex="1">
          <mxGeometry x="90" y="30" width="90" height="40" as="geometry" />
        </mxCell>
        <mxCell id="YNH4hVQxoiGxfMYPuk_M-9" value="dep" style="text;html=1;align=center;verticalAlign=middle;resizable=0;points=[];autosize=1;strokeColor=none;fillColor=none;fontSize=20;fontFamily=Architects Daughter;" parent="YNH4hVQxoiGxfMYPuk_M-8" vertex="1">
          <mxGeometry x="10" y="30" width="60" height="40" as="geometry" />
        </mxCell>
        <mxCell id="YNH4hVQxoiGxfMYPuk_M-10" value="cf" style="rounded=0;whiteSpace=wrap;html=1;sketch=1;hachureGap=4;jiggle=2;curveFitting=1;fontFamily=Architects Daughter;fontSource=https%3A%2F%2Ffonts.googleapis.com%2Fcss%3Ffamily%3DArchitects%2BDaughter;fontSize=20;fillColor=#fff2cc;strokeColor=#d6b656;" parent="YNH4hVQxoiGxfMYPuk_M-8" vertex="1">
          <mxGeometry x="90" y="80" width="90" height="40" as="geometry" />
        </mxCell>
        <mxCell id="YNH4hVQxoiGxfMYPuk_M-11" value="src" style="text;html=1;align=center;verticalAlign=middle;resizable=0;points=[];autosize=1;strokeColor=none;fillColor=none;fontSize=20;fontFamily=Architects Daughter;" parent="YNH4hVQxoiGxfMYPuk_M-8" vertex="1">
          <mxGeometry x="10" y="80" width="60" height="40" as="geometry" />
        </mxCell>
        <mxCell id="YNH4hVQxoiGxfMYPuk_M-13" value="fn" style="text;html=1;align=center;verticalAlign=middle;resizable=0;points=[];autosize=1;strokeColor=none;fillColor=none;fontSize=20;fontFamily=Architects Daughter;" parent="YNH4hVQxoiGxfMYPuk_M-8" vertex="1">
          <mxGeometry x="15" y="134" width="50" height="40" as="geometry" />
        </mxCell>
        <mxCell id="YNH4hVQxoiGxfMYPuk_M-15" value="fn" style="ellipse;whiteSpace=wrap;html=1;sketch=1;hachureGap=4;jiggle=2;curveFitting=1;fontFamily=Architects Daughter;fontSource=https%3A%2F%2Ffonts.googleapis.com%2Fcss%3Ffamily%3DArchitects%2BDaughter;fontSize=20;fillColor=#d5e8d4;strokeColor=#82b366;" parent="YNH4hVQxoiGxfMYPuk_M-8" vertex="1">
          <mxGeometry x="90" y="134" width="90" height="40" as="geometry" />
        </mxCell>
      </root>
    </mxGraphModel>
  </diagram>
  <diagram id="aX4FU4fKTrS_21iSkd5d" name="第 3 页">
    <mxGraphModel dx="1877" dy="534" grid="1" gridSize="10" guides="1" tooltips="1" connect="1" arrows="1" fold="1" page="1" pageScale="1" pageWidth="827" pageHeight="1169" math="0" shadow="0">
      <root>
        <mxCell id="0" />
        <mxCell id="1" parent="0" />
        <mxCell id="6LXy9FuUNTCNzrptZA1h-67" value="" style="edgeStyle=orthogonalEdgeStyle;rounded=0;hachureGap=4;orthogonalLoop=1;jettySize=auto;html=1;fontFamily=Architects Daughter;fontSource=https%3A%2F%2Ffonts.googleapis.com%2Fcss%3Ffamily%3DArchitects%2BDaughter;fontSize=16;exitX=1;exitY=0.5;exitDx=0;exitDy=0;strokeColor=#000000;" parent="1" source="6LXy9FuUNTCNzrptZA1h-62" target="6LXy9FuUNTCNzrptZA1h-66" edge="1">
          <mxGeometry relative="1" as="geometry" />
        </mxCell>
        <mxCell id="6LXy9FuUNTCNzrptZA1h-59" value="" style="shape=table;startSize=0;container=1;collapsible=0;childLayout=tableLayout;hachureGap=4;fontFamily=Architects Daughter;fontSource=https%3A%2F%2Ffonts.googleapis.com%2Fcss%3Ffamily%3DArchitects%2BDaughter;fontSize=20;fillColor=#fff2cc;strokeColor=#d6b656;" parent="1" vertex="1">
          <mxGeometry x="-70" y="100" width="120" height="80" as="geometry" />
        </mxCell>
        <mxCell id="6LXy9FuUNTCNzrptZA1h-60" value="" style="shape=tableRow;horizontal=0;startSize=0;swimlaneHead=0;swimlaneBody=0;strokeColor=inherit;top=0;left=0;bottom=0;right=0;collapsible=0;dropTarget=0;fillColor=none;points=[[0,0.5],[1,0.5]];portConstraint=eastwest;hachureGap=4;fontFamily=Architects Daughter;fontSource=https%3A%2F%2Ffonts.googleapis.com%2Fcss%3Ffamily%3DArchitects%2BDaughter;fontSize=20;" parent="6LXy9FuUNTCNzrptZA1h-59" vertex="1">
          <mxGeometry width="120" height="40" as="geometry" />
        </mxCell>
        <mxCell id="6LXy9FuUNTCNzrptZA1h-61" value="0" style="shape=partialRectangle;html=1;whiteSpace=wrap;connectable=0;strokeColor=inherit;overflow=hidden;fillColor=none;top=0;left=0;bottom=0;right=0;pointerEvents=1;hachureGap=4;fontFamily=Architects Daughter;fontSource=https%3A%2F%2Ffonts.googleapis.com%2Fcss%3Ffamily%3DArchitects%2BDaughter;fontSize=20;" parent="6LXy9FuUNTCNzrptZA1h-60" vertex="1">
          <mxGeometry width="120" height="40" as="geometry">
            <mxRectangle width="120" height="40" as="alternateBounds" />
          </mxGeometry>
        </mxCell>
        <mxCell id="6LXy9FuUNTCNzrptZA1h-62" value="" style="shape=tableRow;horizontal=0;startSize=0;swimlaneHead=0;swimlaneBody=0;strokeColor=inherit;top=0;left=0;bottom=0;right=0;collapsible=0;dropTarget=0;fillColor=none;points=[[0,0.5],[1,0.5]];portConstraint=eastwest;hachureGap=4;fontFamily=Architects Daughter;fontSource=https%3A%2F%2Ffonts.googleapis.com%2Fcss%3Ffamily%3DArchitects%2BDaughter;fontSize=20;" parent="6LXy9FuUNTCNzrptZA1h-59" vertex="1">
          <mxGeometry y="40" width="120" height="40" as="geometry" />
        </mxCell>
        <mxCell id="6LXy9FuUNTCNzrptZA1h-63" value="1" style="shape=partialRectangle;html=1;whiteSpace=wrap;connectable=0;strokeColor=inherit;overflow=hidden;fillColor=none;top=0;left=0;bottom=0;right=0;pointerEvents=1;hachureGap=4;fontFamily=Architects Daughter;fontSource=https%3A%2F%2Ffonts.googleapis.com%2Fcss%3Ffamily%3DArchitects%2BDaughter;fontSize=20;" parent="6LXy9FuUNTCNzrptZA1h-62" vertex="1">
          <mxGeometry width="120" height="40" as="geometry">
            <mxRectangle width="120" height="40" as="alternateBounds" />
          </mxGeometry>
        </mxCell>
        <mxCell id="6LXy9FuUNTCNzrptZA1h-69" value="" style="edgeStyle=orthogonalEdgeStyle;rounded=0;hachureGap=4;orthogonalLoop=1;jettySize=auto;html=1;fontFamily=Architects Daughter;fontSource=https%3A%2F%2Ffonts.googleapis.com%2Fcss%3Ffamily%3DArchitects%2BDaughter;fontSize=16;fillColor=#f8cecc;strokeColor=#000000;" parent="1" source="6LXy9FuUNTCNzrptZA1h-66" target="6LXy9FuUNTCNzrptZA1h-68" edge="1">
          <mxGeometry relative="1" as="geometry" />
        </mxCell>
        <mxCell id="6LXy9FuUNTCNzrptZA1h-66" value="A&lt;br&gt;3" style="ellipse;whiteSpace=wrap;html=1;fontSize=20;fontFamily=Architects Daughter;fillColor=#f8cecc;strokeColor=#b85450;startSize=0;hachureGap=4;fontSource=https%3A%2F%2Ffonts.googleapis.com%2Fcss%3Ffamily%3DArchitects%2BDaughter;" parent="1" vertex="1">
          <mxGeometry x="100" y="120" width="80" height="80" as="geometry" />
        </mxCell>
        <mxCell id="6LXy9FuUNTCNzrptZA1h-71" value="" style="edgeStyle=orthogonalEdgeStyle;rounded=0;hachureGap=4;orthogonalLoop=1;jettySize=auto;html=1;fontFamily=Architects Daughter;fontSource=https%3A%2F%2Ffonts.googleapis.com%2Fcss%3Ffamily%3DArchitects%2BDaughter;fontSize=16;fillColor=#f8cecc;strokeColor=#000000;" parent="1" source="6LXy9FuUNTCNzrptZA1h-68" target="6LXy9FuUNTCNzrptZA1h-70" edge="1">
          <mxGeometry relative="1" as="geometry" />
        </mxCell>
        <mxCell id="6LXy9FuUNTCNzrptZA1h-68" value="B&lt;br&gt;7" style="ellipse;whiteSpace=wrap;html=1;fontSize=20;fontFamily=Architects Daughter;fillColor=#f8cecc;strokeColor=#b85450;startSize=0;hachureGap=4;fontSource=https%3A%2F%2Ffonts.googleapis.com%2Fcss%3Ffamily%3DArchitects%2BDaughter;" parent="1" vertex="1">
          <mxGeometry x="230" y="120" width="80" height="80" as="geometry" />
        </mxCell>
        <mxCell id="6LXy9FuUNTCNzrptZA1h-73" value="" style="edgeStyle=orthogonalEdgeStyle;rounded=0;hachureGap=4;orthogonalLoop=1;jettySize=auto;html=1;fontFamily=Architects Daughter;fontSource=https%3A%2F%2Ffonts.googleapis.com%2Fcss%3Ffamily%3DArchitects%2BDaughter;fontSize=16;fillColor=#f8cecc;strokeColor=#000000;" parent="1" source="6LXy9FuUNTCNzrptZA1h-70" target="6LXy9FuUNTCNzrptZA1h-72" edge="1">
          <mxGeometry relative="1" as="geometry" />
        </mxCell>
        <mxCell id="6LXy9FuUNTCNzrptZA1h-70" value="C&lt;br&gt;5" style="ellipse;whiteSpace=wrap;html=1;fontSize=20;fontFamily=Architects Daughter;fillColor=#f8cecc;strokeColor=#b85450;startSize=0;hachureGap=4;fontSource=https%3A%2F%2Ffonts.googleapis.com%2Fcss%3Ffamily%3DArchitects%2BDaughter;" parent="1" vertex="1">
          <mxGeometry x="360" y="120" width="80" height="80" as="geometry" />
        </mxCell>
        <mxCell id="6LXy9FuUNTCNzrptZA1h-72" value="D&lt;br&gt;4" style="ellipse;whiteSpace=wrap;html=1;fontSize=20;fontFamily=Architects Daughter;fillColor=#f8cecc;strokeColor=#b85450;startSize=0;hachureGap=4;fontSource=https%3A%2F%2Ffonts.googleapis.com%2Fcss%3Ffamily%3DArchitects%2BDaughter;" parent="1" vertex="1">
          <mxGeometry x="490" y="120" width="80" height="80" as="geometry" />
        </mxCell>
        <mxCell id="6LXy9FuUNTCNzrptZA1h-75" value="" style="shape=table;startSize=0;container=1;collapsible=0;childLayout=tableLayout;hachureGap=4;fontFamily=Architects Daughter;fontSource=https%3A%2F%2Ffonts.googleapis.com%2Fcss%3Ffamily%3DArchitects%2BDaughter;fontSize=20;swimlaneLine=1;fillColor=#ffe6cc;strokeColor=#d79b00;swimlaneFillColor=none;gradientColor=none;" parent="1" vertex="1">
          <mxGeometry x="-60" y="320" width="120" height="160" as="geometry" />
        </mxCell>
        <mxCell id="6LXy9FuUNTCNzrptZA1h-76" value="" style="shape=tableRow;horizontal=0;startSize=0;swimlaneHead=0;swimlaneBody=0;strokeColor=#d79b00;top=0;left=0;bottom=0;right=0;collapsible=0;dropTarget=0;fillColor=#ffe6cc;points=[[0,0.5],[1,0.5]];portConstraint=eastwest;sketch=1;hachureGap=4;jiggle=2;curveFitting=1;fontFamily=Architects Daughter;fontSource=https%3A%2F%2Ffonts.googleapis.com%2Fcss%3Ffamily%3DArchitects%2BDaughter;fontSize=20;swimlaneLine=1;swimlaneFillColor=none;gradientColor=none;" parent="6LXy9FuUNTCNzrptZA1h-75" vertex="1">
          <mxGeometry width="120" height="40" as="geometry" />
        </mxCell>
        <mxCell id="6LXy9FuUNTCNzrptZA1h-77" value="0" style="shape=partialRectangle;html=1;whiteSpace=wrap;connectable=0;strokeColor=#d79b00;overflow=hidden;fillColor=#ffe6cc;top=0;left=0;bottom=0;right=0;pointerEvents=1;sketch=1;hachureGap=4;jiggle=2;curveFitting=1;fontFamily=Architects Daughter;fontSource=https%3A%2F%2Ffonts.googleapis.com%2Fcss%3Ffamily%3DArchitects%2BDaughter;fontSize=20;swimlaneLine=1;swimlaneFillColor=none;gradientColor=none;" parent="6LXy9FuUNTCNzrptZA1h-76" vertex="1">
          <mxGeometry width="120" height="40" as="geometry">
            <mxRectangle width="120" height="40" as="alternateBounds" />
          </mxGeometry>
        </mxCell>
        <mxCell id="6LXy9FuUNTCNzrptZA1h-78" value="" style="shape=tableRow;horizontal=0;startSize=0;swimlaneHead=0;swimlaneBody=0;strokeColor=#d79b00;top=0;left=0;bottom=0;right=0;collapsible=0;dropTarget=0;fillColor=#ffe6cc;points=[[0,0.5],[1,0.5]];portConstraint=eastwest;sketch=1;hachureGap=4;jiggle=2;curveFitting=1;fontFamily=Architects Daughter;fontSource=https%3A%2F%2Ffonts.googleapis.com%2Fcss%3Ffamily%3DArchitects%2BDaughter;fontSize=20;swimlaneLine=1;swimlaneFillColor=none;gradientColor=none;" parent="6LXy9FuUNTCNzrptZA1h-75" vertex="1">
          <mxGeometry y="40" width="120" height="40" as="geometry" />
        </mxCell>
        <mxCell id="6LXy9FuUNTCNzrptZA1h-79" value="1" style="shape=partialRectangle;html=1;whiteSpace=wrap;connectable=0;strokeColor=#d79b00;overflow=hidden;fillColor=#ffe6cc;top=0;left=0;bottom=0;right=0;pointerEvents=1;sketch=1;hachureGap=4;jiggle=2;curveFitting=1;fontFamily=Architects Daughter;fontSource=https%3A%2F%2Ffonts.googleapis.com%2Fcss%3Ffamily%3DArchitects%2BDaughter;fontSize=20;swimlaneLine=1;swimlaneFillColor=none;gradientColor=none;" parent="6LXy9FuUNTCNzrptZA1h-78" vertex="1">
          <mxGeometry width="120" height="40" as="geometry">
            <mxRectangle width="120" height="40" as="alternateBounds" />
          </mxGeometry>
        </mxCell>
        <mxCell id="6LXy9FuUNTCNzrptZA1h-80" value="" style="shape=tableRow;horizontal=0;startSize=0;swimlaneHead=0;swimlaneBody=0;strokeColor=#d79b00;top=0;left=0;bottom=0;right=0;collapsible=0;dropTarget=0;fillColor=#ffe6cc;points=[[0,0.5],[1,0.5]];portConstraint=eastwest;sketch=1;hachureGap=4;jiggle=2;curveFitting=1;fontFamily=Architects Daughter;fontSource=https%3A%2F%2Ffonts.googleapis.com%2Fcss%3Ffamily%3DArchitects%2BDaughter;fontSize=20;swimlaneLine=1;swimlaneFillColor=none;gradientColor=none;" parent="6LXy9FuUNTCNzrptZA1h-75" vertex="1">
          <mxGeometry y="80" width="120" height="40" as="geometry" />
        </mxCell>
        <mxCell id="6LXy9FuUNTCNzrptZA1h-81" value="2" style="shape=partialRectangle;html=1;whiteSpace=wrap;connectable=0;strokeColor=#d79b00;overflow=hidden;fillColor=#ffe6cc;top=0;left=0;bottom=0;right=0;pointerEvents=1;sketch=1;hachureGap=4;jiggle=2;curveFitting=1;fontFamily=Architects Daughter;fontSource=https%3A%2F%2Ffonts.googleapis.com%2Fcss%3Ffamily%3DArchitects%2BDaughter;fontSize=20;swimlaneLine=1;swimlaneFillColor=none;gradientColor=none;" parent="6LXy9FuUNTCNzrptZA1h-80" vertex="1">
          <mxGeometry width="120" height="40" as="geometry">
            <mxRectangle width="120" height="40" as="alternateBounds" />
          </mxGeometry>
        </mxCell>
        <mxCell id="6LXy9FuUNTCNzrptZA1h-82" value="" style="shape=tableRow;horizontal=0;startSize=0;swimlaneHead=0;swimlaneBody=0;strokeColor=#d79b00;top=0;left=0;bottom=0;right=0;collapsible=0;dropTarget=0;fillColor=#ffe6cc;points=[[0,0.5],[1,0.5]];portConstraint=eastwest;sketch=1;hachureGap=4;jiggle=2;curveFitting=1;fontFamily=Architects Daughter;fontSource=https%3A%2F%2Ffonts.googleapis.com%2Fcss%3Ffamily%3DArchitects%2BDaughter;fontSize=20;swimlaneLine=1;swimlaneFillColor=none;gradientColor=none;" parent="6LXy9FuUNTCNzrptZA1h-75" vertex="1">
          <mxGeometry y="120" width="120" height="40" as="geometry" />
        </mxCell>
        <mxCell id="6LXy9FuUNTCNzrptZA1h-83" value="3" style="shape=partialRectangle;html=1;whiteSpace=wrap;connectable=0;strokeColor=#d79b00;overflow=hidden;fillColor=#ffe6cc;top=0;left=0;bottom=0;right=0;pointerEvents=1;sketch=1;hachureGap=4;jiggle=2;curveFitting=1;fontFamily=Architects Daughter;fontSource=https%3A%2F%2Ffonts.googleapis.com%2Fcss%3Ffamily%3DArchitects%2BDaughter;fontSize=20;swimlaneLine=1;swimlaneFillColor=none;gradientColor=none;" parent="6LXy9FuUNTCNzrptZA1h-82" vertex="1">
          <mxGeometry width="120" height="40" as="geometry">
            <mxRectangle width="120" height="40" as="alternateBounds" />
          </mxGeometry>
        </mxCell>
        <mxCell id="6LXy9FuUNTCNzrptZA1h-84" value="" style="edgeStyle=orthogonalEdgeStyle;rounded=0;hachureGap=4;orthogonalLoop=1;jettySize=auto;html=1;fontFamily=Architects Daughter;fontSource=https%3A%2F%2Ffonts.googleapis.com%2Fcss%3Ffamily%3DArchitects%2BDaughter;fontSize=16;fillColor=#f8cecc;strokeColor=#000000;" parent="1" source="6LXy9FuUNTCNzrptZA1h-85" target="6LXy9FuUNTCNzrptZA1h-87" edge="1">
          <mxGeometry relative="1" as="geometry" />
        </mxCell>
        <mxCell id="6LXy9FuUNTCNzrptZA1h-85" value="D&lt;br style=&quot;border-color: var(--border-color);&quot;&gt;4" style="ellipse;whiteSpace=wrap;html=1;fontSize=20;fontFamily=Architects Daughter;fillColor=#f8cecc;strokeColor=#b85450;startSize=0;hachureGap=4;fontSource=https%3A%2F%2Ffonts.googleapis.com%2Fcss%3Ffamily%3DArchitects%2BDaughter;" parent="1" vertex="1">
          <mxGeometry x="110" y="420" width="80" height="80" as="geometry" />
        </mxCell>
        <mxCell id="6LXy9FuUNTCNzrptZA1h-93" style="edgeStyle=orthogonalEdgeStyle;rounded=0;hachureGap=4;orthogonalLoop=1;jettySize=auto;html=1;exitX=1;exitY=0.5;exitDx=0;exitDy=0;entryX=0;entryY=0.5;entryDx=0;entryDy=0;fontFamily=Architects Daughter;fontSource=https%3A%2F%2Ffonts.googleapis.com%2Fcss%3Ffamily%3DArchitects%2BDaughter;fontSize=16;" parent="1" source="6LXy9FuUNTCNzrptZA1h-87" target="6LXy9FuUNTCNzrptZA1h-90" edge="1">
          <mxGeometry relative="1" as="geometry" />
        </mxCell>
        <mxCell id="6LXy9FuUNTCNzrptZA1h-87" value="B&lt;br&gt;7" style="ellipse;whiteSpace=wrap;html=1;fontSize=20;fontFamily=Architects Daughter;fillColor=#f8cecc;strokeColor=#b85450;startSize=0;hachureGap=4;fontSource=https%3A%2F%2Ffonts.googleapis.com%2Fcss%3Ffamily%3DArchitects%2BDaughter;" parent="1" vertex="1">
          <mxGeometry x="240" y="420" width="80" height="80" as="geometry" />
        </mxCell>
        <mxCell id="6LXy9FuUNTCNzrptZA1h-95" value="" style="edgeStyle=orthogonalEdgeStyle;rounded=0;hachureGap=4;orthogonalLoop=1;jettySize=auto;html=1;fontFamily=Architects Daughter;fontSource=https%3A%2F%2Ffonts.googleapis.com%2Fcss%3Ffamily%3DArchitects%2BDaughter;fontSize=16;entryX=0;entryY=0.5;entryDx=0;entryDy=0;" parent="1" source="6LXy9FuUNTCNzrptZA1h-89" target="6LXy9FuUNTCNzrptZA1h-96" edge="1">
          <mxGeometry relative="1" as="geometry">
            <mxPoint x="310" y="360" as="targetPoint" />
          </mxGeometry>
        </mxCell>
        <mxCell id="6LXy9FuUNTCNzrptZA1h-89" value="A&lt;br&gt;5" style="ellipse;whiteSpace=wrap;html=1;fontSize=20;fontFamily=Architects Daughter;fillColor=#f8cecc;strokeColor=#b85450;startSize=0;hachureGap=4;fontSource=https%3A%2F%2Ffonts.googleapis.com%2Fcss%3Ffamily%3DArchitects%2BDaughter;" parent="1" vertex="1">
          <mxGeometry x="110" y="320" width="80" height="80" as="geometry" />
        </mxCell>
        <mxCell id="6LXy9FuUNTCNzrptZA1h-90" value="A&lt;br style=&quot;border-color: var(--border-color);&quot;&gt;3" style="ellipse;whiteSpace=wrap;html=1;fontSize=20;fontFamily=Architects Daughter;fillColor=#f8cecc;strokeColor=#b85450;startSize=0;hachureGap=4;fontSource=https%3A%2F%2Ffonts.googleapis.com%2Fcss%3Ffamily%3DArchitects%2BDaughter;" parent="1" vertex="1">
          <mxGeometry x="373.5" y="420" width="80" height="80" as="geometry" />
        </mxCell>
        <mxCell id="6LXy9FuUNTCNzrptZA1h-91" style="edgeStyle=orthogonalEdgeStyle;rounded=0;hachureGap=4;orthogonalLoop=1;jettySize=auto;html=1;exitX=1;exitY=0.5;exitDx=0;exitDy=0;entryX=0;entryY=0.5;entryDx=0;entryDy=0;fontFamily=Architects Daughter;fontSource=https%3A%2F%2Ffonts.googleapis.com%2Fcss%3Ffamily%3DArchitects%2BDaughter;fontSize=16;" parent="1" source="6LXy9FuUNTCNzrptZA1h-82" target="6LXy9FuUNTCNzrptZA1h-85" edge="1">
          <mxGeometry relative="1" as="geometry" />
        </mxCell>
        <mxCell id="6LXy9FuUNTCNzrptZA1h-92" style="rounded=0;sketch=1;hachureGap=4;jiggle=2;curveFitting=1;orthogonalLoop=1;jettySize=auto;html=1;exitX=1;exitY=0.5;exitDx=0;exitDy=0;fontFamily=Architects Daughter;fontSource=https%3A%2F%2Ffonts.googleapis.com%2Fcss%3Ffamily%3DArchitects%2BDaughter;fontSize=16;entryX=0;entryY=0.5;entryDx=0;entryDy=0;" parent="1" source="6LXy9FuUNTCNzrptZA1h-78" target="6LXy9FuUNTCNzrptZA1h-89" edge="1">
          <mxGeometry relative="1" as="geometry">
            <mxPoint x="90" y="380" as="targetPoint" />
          </mxGeometry>
        </mxCell>
        <mxCell id="6LXy9FuUNTCNzrptZA1h-96" value="NULL" style="text;html=1;strokeColor=none;fillColor=none;align=center;verticalAlign=middle;whiteSpace=wrap;rounded=0;fontSize=20;fontFamily=Architects Daughter;" parent="1" vertex="1">
          <mxGeometry x="250" y="345" width="60" height="30" as="geometry" />
        </mxCell>
      </root>
    </mxGraphModel>
  </diagram>
  <diagram id="JwnnHcCTlG35qpvH1nLm" name="第 4 页">
    <mxGraphModel dx="1050" dy="1703" grid="1" gridSize="10" guides="1" tooltips="1" connect="1" arrows="1" fold="1" page="1" pageScale="1" pageWidth="827" pageHeight="1169" math="0" shadow="0">
      <root>
        <mxCell id="0" />
        <mxCell id="1" parent="0" />
        <mxCell id="TRYM48ci0Z0StGSt9hAV-4" value="" style="edgeStyle=orthogonalEdgeStyle;rounded=0;orthogonalLoop=1;jettySize=auto;html=1;" parent="1" source="TRYM48ci0Z0StGSt9hAV-2" target="TRYM48ci0Z0StGSt9hAV-3" edge="1">
          <mxGeometry relative="1" as="geometry" />
        </mxCell>
        <mxCell id="TRYM48ci0Z0StGSt9hAV-2" value="开始" style="ellipse;whiteSpace=wrap;html=1;aspect=fixed;" parent="1" vertex="1">
          <mxGeometry x="20" y="110" width="80" height="80" as="geometry" />
        </mxCell>
        <mxCell id="TRYM48ci0Z0StGSt9hAV-6" value="" style="edgeStyle=orthogonalEdgeStyle;rounded=0;orthogonalLoop=1;jettySize=auto;html=1;" parent="1" edge="1">
          <mxGeometry relative="1" as="geometry">
            <mxPoint x="275" y="150" as="sourcePoint" />
            <mxPoint x="375" y="20" as="targetPoint" />
            <Array as="points">
              <mxPoint x="325" y="150" />
              <mxPoint x="325" y="20" />
            </Array>
          </mxGeometry>
        </mxCell>
        <mxCell id="TRYM48ci0Z0StGSt9hAV-10" value="" style="edgeStyle=orthogonalEdgeStyle;rounded=0;orthogonalLoop=1;jettySize=auto;html=1;entryX=0;entryY=0.5;entryDx=0;entryDy=0;" parent="1" target="TRYM48ci0Z0StGSt9hAV-9" edge="1">
          <mxGeometry relative="1" as="geometry">
            <mxPoint x="285" y="150" as="sourcePoint" />
            <mxPoint x="375" y="300" as="targetPoint" />
            <Array as="points">
              <mxPoint x="325" y="150" />
              <mxPoint x="325" y="290" />
            </Array>
          </mxGeometry>
        </mxCell>
        <mxCell id="TRYM48ci0Z0StGSt9hAV-3" value="task" style="rounded=1;whiteSpace=wrap;html=1;" parent="1" vertex="1">
          <mxGeometry x="160" y="120" width="120" height="60" as="geometry" />
        </mxCell>
        <mxCell id="TRYM48ci0Z0StGSt9hAV-5" value="task" style="rounded=1;whiteSpace=wrap;html=1;" parent="1" vertex="1">
          <mxGeometry x="380" width="120" height="60" as="geometry" />
        </mxCell>
        <mxCell id="TRYM48ci0Z0StGSt9hAV-7" value="异步task" style="rounded=1;whiteSpace=wrap;html=1;" parent="1" vertex="1">
          <mxGeometry x="540" y="420" width="120" height="60" as="geometry" />
        </mxCell>
        <mxCell id="TRYM48ci0Z0StGSt9hAV-12" value="" style="edgeStyle=orthogonalEdgeStyle;rounded=0;orthogonalLoop=1;jettySize=auto;html=1;exitX=1;exitY=0.5;exitDx=0;exitDy=0;" parent="1" source="TRYM48ci0Z0StGSt9hAV-5" target="TRYM48ci0Z0StGSt9hAV-11" edge="1">
          <mxGeometry relative="1" as="geometry" />
        </mxCell>
        <mxCell id="TRYM48ci0Z0StGSt9hAV-27" style="edgeStyle=orthogonalEdgeStyle;rounded=0;orthogonalLoop=1;jettySize=auto;html=1;exitX=0.5;exitY=1;exitDx=0;exitDy=0;entryX=0;entryY=0.5;entryDx=0;entryDy=0;dashed=1;" parent="1" source="TRYM48ci0Z0StGSt9hAV-9" target="TRYM48ci0Z0StGSt9hAV-7" edge="1">
          <mxGeometry relative="1" as="geometry" />
        </mxCell>
        <mxCell id="TRYM48ci0Z0StGSt9hAV-38" style="edgeStyle=orthogonalEdgeStyle;rounded=0;orthogonalLoop=1;jettySize=auto;html=1;exitX=1;exitY=0.5;exitDx=0;exitDy=0;entryX=0;entryY=0.5;entryDx=0;entryDy=0;" parent="1" edge="1">
          <mxGeometry relative="1" as="geometry">
            <mxPoint x="486" y="290" as="sourcePoint" />
            <mxPoint x="1177" y="150" as="targetPoint" />
            <Array as="points">
              <mxPoint x="1130" y="290" />
              <mxPoint x="1130" y="150" />
            </Array>
          </mxGeometry>
        </mxCell>
        <mxCell id="TRYM48ci0Z0StGSt9hAV-9" value="task" style="rounded=1;whiteSpace=wrap;html=1;" parent="1" vertex="1">
          <mxGeometry x="370" y="260" width="120" height="60" as="geometry" />
        </mxCell>
        <mxCell id="TRYM48ci0Z0StGSt9hAV-21" style="edgeStyle=orthogonalEdgeStyle;rounded=0;orthogonalLoop=1;jettySize=auto;html=1;exitX=1;exitY=0.5;exitDx=0;exitDy=0;" parent="1" source="TRYM48ci0Z0StGSt9hAV-11" target="TRYM48ci0Z0StGSt9hAV-20" edge="1">
          <mxGeometry relative="1" as="geometry" />
        </mxCell>
        <mxCell id="TRYM48ci0Z0StGSt9hAV-11" value="路由" style="rhombus;whiteSpace=wrap;html=1;rounded=1;" parent="1" vertex="1">
          <mxGeometry x="580" y="-10" width="80" height="80" as="geometry" />
        </mxCell>
        <mxCell id="TRYM48ci0Z0StGSt9hAV-15" value="task" style="rounded=1;whiteSpace=wrap;html=1;" parent="1" vertex="1">
          <mxGeometry x="760" y="-80" width="120" height="60" as="geometry" />
        </mxCell>
        <mxCell id="TRYM48ci0Z0StGSt9hAV-16" value="task" style="rounded=1;whiteSpace=wrap;html=1;" parent="1" vertex="1">
          <mxGeometry x="760" width="120" height="60" as="geometry" />
        </mxCell>
        <mxCell id="TRYM48ci0Z0StGSt9hAV-17" value="task" style="rounded=1;whiteSpace=wrap;html=1;" parent="1" vertex="1">
          <mxGeometry x="760" y="90" width="120" height="60" as="geometry" />
        </mxCell>
        <mxCell id="TRYM48ci0Z0StGSt9hAV-20" value="" style="strokeWidth=2;html=1;shape=mxgraph.flowchart.annotation_2;align=left;labelPosition=right;pointerEvents=1;" parent="1" vertex="1">
          <mxGeometry x="700" y="-70" width="60" height="200" as="geometry" />
        </mxCell>
        <mxCell id="TRYM48ci0Z0StGSt9hAV-24" value="" style="html=1;shadow=0;dashed=0;align=center;verticalAlign=middle;shape=mxgraph.arrows2.uTurnArrow;dy=4.2;arrowHead=26;dx2=23.8;direction=south;rotation=25;" parent="1" vertex="1">
          <mxGeometry x="450" y="220" width="80" height="50" as="geometry" />
        </mxCell>
        <mxCell id="TRYM48ci0Z0StGSt9hAV-26" value="重试" style="text;html=1;strokeColor=none;fillColor=none;align=center;verticalAlign=middle;whiteSpace=wrap;rounded=0;" parent="1" vertex="1">
          <mxGeometry x="460" y="230" width="60" height="30" as="geometry" />
        </mxCell>
        <mxCell id="TRYM48ci0Z0StGSt9hAV-30" value="taskGroup" style="text;html=1;strokeColor=none;fillColor=none;align=center;verticalAlign=middle;whiteSpace=wrap;rounded=0;" parent="1" vertex="1">
          <mxGeometry x="780" y="-130" width="60" height="30" as="geometry" />
        </mxCell>
        <mxCell id="TRYM48ci0Z0StGSt9hAV-35" style="edgeStyle=orthogonalEdgeStyle;rounded=0;orthogonalLoop=1;jettySize=auto;html=1;exitX=0;exitY=0.5;exitDx=0;exitDy=0;exitPerimeter=0;entryX=0;entryY=0.5;entryDx=0;entryDy=0;" parent="1" source="TRYM48ci0Z0StGSt9hAV-31" target="TRYM48ci0Z0StGSt9hAV-34" edge="1">
          <mxGeometry relative="1" as="geometry" />
        </mxCell>
        <mxCell id="TRYM48ci0Z0StGSt9hAV-31" value="" style="strokeWidth=2;html=1;shape=mxgraph.flowchart.annotation_2;align=left;labelPosition=right;pointerEvents=1;direction=west;" parent="1" vertex="1">
          <mxGeometry x="880" y="-70" width="50" height="200" as="geometry" />
        </mxCell>
        <mxCell id="TRYM48ci0Z0StGSt9hAV-39" style="edgeStyle=orthogonalEdgeStyle;rounded=0;orthogonalLoop=1;jettySize=auto;html=1;exitX=1;exitY=0.5;exitDx=0;exitDy=0;entryX=0;entryY=0.5;entryDx=0;entryDy=0;" parent="1" source="TRYM48ci0Z0StGSt9hAV-34" target="TRYM48ci0Z0StGSt9hAV-37" edge="1">
          <mxGeometry relative="1" as="geometry" />
        </mxCell>
        <mxCell id="TRYM48ci0Z0StGSt9hAV-34" value="task" style="rounded=1;whiteSpace=wrap;html=1;" parent="1" vertex="1">
          <mxGeometry x="970" width="120" height="60" as="geometry" />
        </mxCell>
        <mxCell id="TRYM48ci0Z0StGSt9hAV-41" value="" style="edgeStyle=orthogonalEdgeStyle;rounded=0;orthogonalLoop=1;jettySize=auto;html=1;" parent="1" source="TRYM48ci0Z0StGSt9hAV-37" target="TRYM48ci0Z0StGSt9hAV-40" edge="1">
          <mxGeometry relative="1" as="geometry" />
        </mxCell>
        <mxCell id="TRYM48ci0Z0StGSt9hAV-37" value="task" style="rounded=1;whiteSpace=wrap;html=1;" parent="1" vertex="1">
          <mxGeometry x="1170" y="120" width="120" height="60" as="geometry" />
        </mxCell>
        <mxCell id="TRYM48ci0Z0StGSt9hAV-40" value="结束" style="ellipse;whiteSpace=wrap;html=1;rounded=1;" parent="1" vertex="1">
          <mxGeometry x="1360" y="110" width="80" height="80" as="geometry" />
        </mxCell>
      </root>
    </mxGraphModel>
  </diagram>
  <diagram id="9V5LMy73jnfUFvYYuYQu" name="第 5 页">
    <mxGraphModel dx="1877" dy="534" grid="1" gridSize="10" guides="1" tooltips="1" connect="1" arrows="1" fold="1" page="1" pageScale="1" pageWidth="827" pageHeight="1169" math="0" shadow="0">
      <root>
        <mxCell id="0" />
        <mxCell id="1" parent="0" />
        <mxCell id="hMHWT8pa8ZcwZ5eRJc6M-27" style="edgeStyle=orthogonalEdgeStyle;rounded=0;orthogonalLoop=1;jettySize=auto;html=1;exitX=1;exitY=0.5;exitDx=0;exitDy=0;entryX=0;entryY=0.5;entryDx=0;entryDy=0;" edge="1" parent="1" source="hMHWT8pa8ZcwZ5eRJc6M-2" target="hMHWT8pa8ZcwZ5eRJc6M-3">
          <mxGeometry relative="1" as="geometry" />
        </mxCell>
        <mxCell id="hMHWT8pa8ZcwZ5eRJc6M-76" style="edgeStyle=orthogonalEdgeStyle;rounded=0;orthogonalLoop=1;jettySize=auto;html=1;exitX=0.5;exitY=1;exitDx=0;exitDy=0;entryX=0.5;entryY=0;entryDx=0;entryDy=0;" edge="1" parent="1" source="hMHWT8pa8ZcwZ5eRJc6M-2" target="hMHWT8pa8ZcwZ5eRJc6M-25">
          <mxGeometry relative="1" as="geometry" />
        </mxCell>
        <mxCell id="hMHWT8pa8ZcwZ5eRJc6M-2" value="executable" style="rounded=1;whiteSpace=wrap;html=1;" vertex="1" parent="1">
          <mxGeometry x="180" y="100" width="100" height="50" as="geometry" />
        </mxCell>
        <mxCell id="hMHWT8pa8ZcwZ5eRJc6M-14" style="edgeStyle=orthogonalEdgeStyle;rounded=0;orthogonalLoop=1;jettySize=auto;html=1;exitX=1;exitY=0.5;exitDx=0;exitDy=0;entryX=0;entryY=0.5;entryDx=0;entryDy=0;" edge="1" parent="1" source="hMHWT8pa8ZcwZ5eRJc6M-3" target="hMHWT8pa8ZcwZ5eRJc6M-6">
          <mxGeometry relative="1" as="geometry" />
        </mxCell>
        <mxCell id="hMHWT8pa8ZcwZ5eRJc6M-3" value="task" style="rounded=1;whiteSpace=wrap;html=1;" vertex="1" parent="1">
          <mxGeometry x="320" y="100" width="100" height="50" as="geometry" />
        </mxCell>
        <mxCell id="hMHWT8pa8ZcwZ5eRJc6M-15" style="edgeStyle=orthogonalEdgeStyle;rounded=0;orthogonalLoop=1;jettySize=auto;html=1;exitX=1;exitY=0.5;exitDx=0;exitDy=0;entryX=0;entryY=0.5;entryDx=0;entryDy=0;" edge="1" parent="1" source="hMHWT8pa8ZcwZ5eRJc6M-6" target="hMHWT8pa8ZcwZ5eRJc6M-11">
          <mxGeometry relative="1" as="geometry" />
        </mxCell>
        <mxCell id="hMHWT8pa8ZcwZ5eRJc6M-6" value="group" style="rounded=1;whiteSpace=wrap;html=1;" vertex="1" parent="1">
          <mxGeometry x="460" y="100" width="100" height="50" as="geometry" />
        </mxCell>
        <mxCell id="hMHWT8pa8ZcwZ5eRJc6M-11" value="flow" style="rounded=1;whiteSpace=wrap;html=1;" vertex="1" parent="1">
          <mxGeometry x="590" y="100" width="100" height="50" as="geometry" />
        </mxCell>
        <mxCell id="hMHWT8pa8ZcwZ5eRJc6M-44" style="edgeStyle=orthogonalEdgeStyle;rounded=0;orthogonalLoop=1;jettySize=auto;html=1;exitX=0.5;exitY=1;exitDx=0;exitDy=0;" edge="1" parent="1" source="hMHWT8pa8ZcwZ5eRJc6M-18" target="hMHWT8pa8ZcwZ5eRJc6M-3">
          <mxGeometry relative="1" as="geometry" />
        </mxCell>
        <mxCell id="hMHWT8pa8ZcwZ5eRJc6M-18" value="lifecycle" style="rounded=1;whiteSpace=wrap;html=1;" vertex="1" parent="1">
          <mxGeometry x="375" width="100" height="50" as="geometry" />
        </mxCell>
        <mxCell id="hMHWT8pa8ZcwZ5eRJc6M-43" style="edgeStyle=orthogonalEdgeStyle;rounded=0;orthogonalLoop=1;jettySize=auto;html=1;exitX=0.5;exitY=1;exitDx=0;exitDy=0;" edge="1" parent="1" source="hMHWT8pa8ZcwZ5eRJc6M-20" target="hMHWT8pa8ZcwZ5eRJc6M-3">
          <mxGeometry relative="1" as="geometry" />
        </mxCell>
        <mxCell id="hMHWT8pa8ZcwZ5eRJc6M-20" value="retry" style="rounded=1;whiteSpace=wrap;html=1;" vertex="1" parent="1">
          <mxGeometry x="265" width="100" height="50" as="geometry" />
        </mxCell>
        <mxCell id="hMHWT8pa8ZcwZ5eRJc6M-24" value="" style="edgeStyle=orthogonalEdgeStyle;rounded=0;orthogonalLoop=1;jettySize=auto;html=1;" edge="1" parent="1" source="hMHWT8pa8ZcwZ5eRJc6M-21" target="hMHWT8pa8ZcwZ5eRJc6M-23">
          <mxGeometry relative="1" as="geometry" />
        </mxCell>
        <mxCell id="hMHWT8pa8ZcwZ5eRJc6M-78" style="edgeStyle=orthogonalEdgeStyle;rounded=0;orthogonalLoop=1;jettySize=auto;html=1;exitX=1;exitY=0.5;exitDx=0;exitDy=0;entryX=0;entryY=0.5;entryDx=0;entryDy=0;" edge="1" parent="1" source="hMHWT8pa8ZcwZ5eRJc6M-21" target="hMHWT8pa8ZcwZ5eRJc6M-77">
          <mxGeometry relative="1" as="geometry" />
        </mxCell>
        <mxCell id="hMHWT8pa8ZcwZ5eRJc6M-21" value="piperline" style="rounded=1;whiteSpace=wrap;html=1;" vertex="1" parent="1">
          <mxGeometry x="-320" y="250" width="100" height="50" as="geometry" />
        </mxCell>
        <mxCell id="hMHWT8pa8ZcwZ5eRJc6M-73" value="" style="edgeStyle=orthogonalEdgeStyle;rounded=0;orthogonalLoop=1;jettySize=auto;html=1;" edge="1" parent="1" source="hMHWT8pa8ZcwZ5eRJc6M-23" target="hMHWT8pa8ZcwZ5eRJc6M-72">
          <mxGeometry relative="1" as="geometry" />
        </mxCell>
        <mxCell id="hMHWT8pa8ZcwZ5eRJc6M-23" value="node" style="rounded=1;whiteSpace=wrap;html=1;" vertex="1" parent="1">
          <mxGeometry x="-160" y="280" width="100" height="50" as="geometry" />
        </mxCell>
        <mxCell id="hMHWT8pa8ZcwZ5eRJc6M-33" style="edgeStyle=orthogonalEdgeStyle;rounded=0;orthogonalLoop=1;jettySize=auto;html=1;exitX=1;exitY=0.5;exitDx=0;exitDy=0;entryX=0;entryY=0.5;entryDx=0;entryDy=0;" edge="1" parent="1" source="hMHWT8pa8ZcwZ5eRJc6M-25" target="hMHWT8pa8ZcwZ5eRJc6M-29">
          <mxGeometry relative="1" as="geometry" />
        </mxCell>
        <mxCell id="hMHWT8pa8ZcwZ5eRJc6M-80" style="edgeStyle=orthogonalEdgeStyle;rounded=0;orthogonalLoop=1;jettySize=auto;html=1;exitX=1;exitY=0.5;exitDx=0;exitDy=0;entryX=0;entryY=0.5;entryDx=0;entryDy=0;" edge="1" parent="1" source="hMHWT8pa8ZcwZ5eRJc6M-25" target="hMHWT8pa8ZcwZ5eRJc6M-31">
          <mxGeometry relative="1" as="geometry" />
        </mxCell>
        <mxCell id="hMHWT8pa8ZcwZ5eRJc6M-81" style="edgeStyle=orthogonalEdgeStyle;rounded=0;orthogonalLoop=1;jettySize=auto;html=1;exitX=1;exitY=0.5;exitDx=0;exitDy=0;entryX=0;entryY=0.5;entryDx=0;entryDy=0;" edge="1" parent="1" source="hMHWT8pa8ZcwZ5eRJc6M-25" target="hMHWT8pa8ZcwZ5eRJc6M-32">
          <mxGeometry relative="1" as="geometry" />
        </mxCell>
        <mxCell id="hMHWT8pa8ZcwZ5eRJc6M-25" value="executeWrapper" style="rounded=1;whiteSpace=wrap;html=1;" vertex="1" parent="1">
          <mxGeometry x="180" y="250" width="100" height="50" as="geometry" />
        </mxCell>
        <mxCell id="hMHWT8pa8ZcwZ5eRJc6M-85" style="edgeStyle=orthogonalEdgeStyle;rounded=0;orthogonalLoop=1;jettySize=auto;html=1;exitX=1;exitY=0.5;exitDx=0;exitDy=0;entryX=1;entryY=0.25;entryDx=0;entryDy=0;" edge="1" parent="1" source="hMHWT8pa8ZcwZ5eRJc6M-29" target="hMHWT8pa8ZcwZ5eRJc6M-31">
          <mxGeometry relative="1" as="geometry" />
        </mxCell>
        <mxCell id="hMHWT8pa8ZcwZ5eRJc6M-29" value="taskWrapper" style="rounded=1;whiteSpace=wrap;html=1;" vertex="1" parent="1">
          <mxGeometry x="340" y="180" width="100" height="50" as="geometry" />
        </mxCell>
        <mxCell id="hMHWT8pa8ZcwZ5eRJc6M-84" style="edgeStyle=orthogonalEdgeStyle;rounded=0;orthogonalLoop=1;jettySize=auto;html=1;exitX=1;exitY=0.75;exitDx=0;exitDy=0;entryX=1;entryY=0.5;entryDx=0;entryDy=0;" edge="1" parent="1" source="hMHWT8pa8ZcwZ5eRJc6M-31" target="hMHWT8pa8ZcwZ5eRJc6M-32">
          <mxGeometry relative="1" as="geometry" />
        </mxCell>
        <mxCell id="hMHWT8pa8ZcwZ5eRJc6M-31" value="groupWrapper" style="rounded=1;whiteSpace=wrap;html=1;" vertex="1" parent="1">
          <mxGeometry x="340" y="250" width="100" height="50" as="geometry" />
        </mxCell>
        <mxCell id="hMHWT8pa8ZcwZ5eRJc6M-32" value="flowWrapper" style="rounded=1;whiteSpace=wrap;html=1;" vertex="1" parent="1">
          <mxGeometry x="340" y="320" width="100" height="50" as="geometry" />
        </mxCell>
        <mxCell id="hMHWT8pa8ZcwZ5eRJc6M-48" style="edgeStyle=orthogonalEdgeStyle;rounded=0;orthogonalLoop=1;jettySize=auto;html=1;exitX=1;exitY=0.5;exitDx=0;exitDy=0;entryX=0;entryY=0.5;entryDx=0;entryDy=0;" edge="1" parent="1" source="hMHWT8pa8ZcwZ5eRJc6M-49" target="hMHWT8pa8ZcwZ5eRJc6M-51">
          <mxGeometry relative="1" as="geometry" />
        </mxCell>
        <mxCell id="hMHWT8pa8ZcwZ5eRJc6M-86" style="edgeStyle=orthogonalEdgeStyle;rounded=0;orthogonalLoop=1;jettySize=auto;html=1;exitX=1;exitY=0.5;exitDx=0;exitDy=0;" edge="1" parent="1" source="hMHWT8pa8ZcwZ5eRJc6M-49" target="hMHWT8pa8ZcwZ5eRJc6M-53">
          <mxGeometry relative="1" as="geometry" />
        </mxCell>
        <mxCell id="hMHWT8pa8ZcwZ5eRJc6M-87" style="edgeStyle=orthogonalEdgeStyle;rounded=0;orthogonalLoop=1;jettySize=auto;html=1;exitX=1;exitY=0.5;exitDx=0;exitDy=0;entryX=0;entryY=0.5;entryDx=0;entryDy=0;" edge="1" parent="1" source="hMHWT8pa8ZcwZ5eRJc6M-49" target="hMHWT8pa8ZcwZ5eRJc6M-54">
          <mxGeometry relative="1" as="geometry" />
        </mxCell>
        <mxCell id="hMHWT8pa8ZcwZ5eRJc6M-49" value="executor" style="rounded=1;whiteSpace=wrap;html=1;" vertex="1" parent="1">
          <mxGeometry x="20" y="490" width="100" height="50" as="geometry" />
        </mxCell>
        <mxCell id="hMHWT8pa8ZcwZ5eRJc6M-90" style="edgeStyle=orthogonalEdgeStyle;rounded=0;orthogonalLoop=1;jettySize=auto;html=1;exitX=1;exitY=0.5;exitDx=0;exitDy=0;entryX=1;entryY=0.25;entryDx=0;entryDy=0;" edge="1" parent="1" source="hMHWT8pa8ZcwZ5eRJc6M-51" target="hMHWT8pa8ZcwZ5eRJc6M-53">
          <mxGeometry relative="1" as="geometry" />
        </mxCell>
        <mxCell id="hMHWT8pa8ZcwZ5eRJc6M-51" value="taskExecutor" style="rounded=1;whiteSpace=wrap;html=1;" vertex="1" parent="1">
          <mxGeometry x="200" y="420" width="100" height="50" as="geometry" />
        </mxCell>
        <mxCell id="hMHWT8pa8ZcwZ5eRJc6M-91" style="edgeStyle=orthogonalEdgeStyle;rounded=0;orthogonalLoop=1;jettySize=auto;html=1;exitX=1;exitY=0.75;exitDx=0;exitDy=0;entryX=1;entryY=0.5;entryDx=0;entryDy=0;" edge="1" parent="1" source="hMHWT8pa8ZcwZ5eRJc6M-53" target="hMHWT8pa8ZcwZ5eRJc6M-54">
          <mxGeometry relative="1" as="geometry" />
        </mxCell>
        <mxCell id="hMHWT8pa8ZcwZ5eRJc6M-53" value="groupExecutor" style="rounded=1;whiteSpace=wrap;html=1;" vertex="1" parent="1">
          <mxGeometry x="200" y="490" width="100" height="50" as="geometry" />
        </mxCell>
        <mxCell id="hMHWT8pa8ZcwZ5eRJc6M-54" value="flowExecutor" style="rounded=1;whiteSpace=wrap;html=1;" vertex="1" parent="1">
          <mxGeometry x="200" y="560" width="100" height="50" as="geometry" />
        </mxCell>
        <mxCell id="hMHWT8pa8ZcwZ5eRJc6M-70" style="edgeStyle=orthogonalEdgeStyle;rounded=0;orthogonalLoop=1;jettySize=auto;html=1;exitX=0.5;exitY=1;exitDx=0;exitDy=0;entryX=0.5;entryY=0;entryDx=0;entryDy=0;" edge="1" parent="1" source="hMHWT8pa8ZcwZ5eRJc6M-60" target="hMHWT8pa8ZcwZ5eRJc6M-69">
          <mxGeometry relative="1" as="geometry" />
        </mxCell>
        <mxCell id="hMHWT8pa8ZcwZ5eRJc6M-60" value="executeRegister" style="rounded=1;whiteSpace=wrap;html=1;" vertex="1" parent="1">
          <mxGeometry x="20" y="330" width="100" height="50" as="geometry" />
        </mxCell>
        <mxCell id="hMHWT8pa8ZcwZ5eRJc6M-71" style="edgeStyle=orthogonalEdgeStyle;rounded=0;orthogonalLoop=1;jettySize=auto;html=1;exitX=0.5;exitY=1;exitDx=0;exitDy=0;" edge="1" parent="1" source="hMHWT8pa8ZcwZ5eRJc6M-69" target="hMHWT8pa8ZcwZ5eRJc6M-49">
          <mxGeometry relative="1" as="geometry" />
        </mxCell>
        <mxCell id="hMHWT8pa8ZcwZ5eRJc6M-69" value="executorFactory" style="rounded=1;whiteSpace=wrap;html=1;" vertex="1" parent="1">
          <mxGeometry x="20" y="410" width="100" height="50" as="geometry" />
        </mxCell>
        <mxCell id="hMHWT8pa8ZcwZ5eRJc6M-74" style="edgeStyle=orthogonalEdgeStyle;rounded=0;orthogonalLoop=1;jettySize=auto;html=1;exitX=1;exitY=0.5;exitDx=0;exitDy=0;entryX=0;entryY=0.5;entryDx=0;entryDy=0;" edge="1" parent="1" source="hMHWT8pa8ZcwZ5eRJc6M-72" target="hMHWT8pa8ZcwZ5eRJc6M-25">
          <mxGeometry relative="1" as="geometry" />
        </mxCell>
        <mxCell id="hMHWT8pa8ZcwZ5eRJc6M-75" style="edgeStyle=orthogonalEdgeStyle;rounded=0;orthogonalLoop=1;jettySize=auto;html=1;exitX=0.5;exitY=1;exitDx=0;exitDy=0;entryX=0.5;entryY=0;entryDx=0;entryDy=0;" edge="1" parent="1" source="hMHWT8pa8ZcwZ5eRJc6M-72" target="hMHWT8pa8ZcwZ5eRJc6M-60">
          <mxGeometry relative="1" as="geometry" />
        </mxCell>
        <mxCell id="hMHWT8pa8ZcwZ5eRJc6M-72" value="executeWrapperFactory" style="rounded=1;whiteSpace=wrap;html=1;" vertex="1" parent="1">
          <mxGeometry y="250" width="140" height="50" as="geometry" />
        </mxCell>
        <mxCell id="hMHWT8pa8ZcwZ5eRJc6M-79" style="edgeStyle=orthogonalEdgeStyle;rounded=0;orthogonalLoop=1;jettySize=auto;html=1;exitX=1;exitY=0.5;exitDx=0;exitDy=0;entryX=0;entryY=0.5;entryDx=0;entryDy=0;" edge="1" parent="1" source="hMHWT8pa8ZcwZ5eRJc6M-77" target="hMHWT8pa8ZcwZ5eRJc6M-72">
          <mxGeometry relative="1" as="geometry" />
        </mxCell>
        <mxCell id="hMHWT8pa8ZcwZ5eRJc6M-77" value="relate" style="rounded=1;whiteSpace=wrap;html=1;" vertex="1" parent="1">
          <mxGeometry x="-160" y="210" width="100" height="50" as="geometry" />
        </mxCell>
      </root>
    </mxGraphModel>
  </diagram>
</mxfile>
